<svg xmlns="http://www.w3.org/2000/svg" width="24" height="24" viewBox="0 0 48 48" fill="#4B5563">
  <g>
    <path d="M43.611 20.083H42V20H24v8h11.303C34.73 32.364 29.728 36 24 36c-6.627 0-12-5.373-12-12s5.373-12 12-12c2.73 0 5.23.928 7.217 2.462l6.084-6.084C33.527 6.163 28.977 4 24 4 12.954 4 4 12.954 4 24s8.954 20 20 20c11.046 0 20-8.954 20-20 0-1.341-.138-2.651-.389-3.917z"/>
    <path d="M6.306 14.691l6.584 4.829C14.655 16.108 19.008 13 24 13c2.73 0 5.23.928 7.217 2.462l6.084-6.084C33.527 6.163 28.977 4 24 4c-7.732 0-14.37 4.388-17.694 10.691z"/>
    <path d="M24 44c5.421 0 10.367-1.858 14.236-5.029l-6.567-5.389C29.728 36 26.995 37 24 37c-5.709 0-10.557-3.657-12.303-8.729l-6.563 5.061C9.615 39.556 16.227 44 24 44z"/>
    <path d="M43.611 20.083H42V20H24v8h11.303c-1.377 3.726-5.375 7-11.303 7-2.285 0-4.418-.66-6.184-1.797l-6.563 5.061C9.615 39.556 16.227 44 24 44c7.732 0 14.37-4.388 17.694-10.691z"/>
  </g>
</svg>